# Blender 4.3.2
# www.blender.org
o blueboat_simple
v -0.323895 -0.003895 0.303895
v -0.059522 0.433894 0.069522
v -0.323895 -0.003895 -0.303895
v -0.059522 0.433894 -0.069522
v 0.323895 -0.003895 0.303895
v 0.059522 0.433894 0.069522
v 0.323895 -0.003895 -0.303895
v 0.059522 0.433894 -0.069522
v -0.596582 -0.377447 -0.286553
v -0.596582 -0.000553 -0.286553
v -0.596582 -0.000553 -0.303447
v 0.596582 -0.377447 -0.286553
v 0.596582 -0.000553 -0.286553
v 0.596582 -0.000553 -0.303447
v 0.596582 -0.377447 0.286553
v 0.596582 -0.000553 0.286553
v 0.596582 -0.000553 0.303447
v -0.596582 -0.377447 0.286553
v -0.596582 -0.000553 0.286553
v -0.596582 -0.000553 0.303447
v -0.373764 -0.000781 -0.328236
v -0.373764 0.140781 -0.328236
v -0.373764 -0.000781 -0.375764
v -0.373764 0.140781 -0.375764
v -0.326236 -0.000781 -0.328236
v -0.326236 0.140781 -0.328236
v -0.326236 -0.000781 -0.375764
v -0.326236 0.140781 -0.375764
v -0.373764 -0.000781 0.375764
v -0.373764 0.140781 0.375764
v -0.373764 -0.000781 0.328236
v -0.373764 0.140781 0.328236
v -0.326236 -0.000781 0.375764
v -0.326236 0.140781 0.375764
v -0.326236 -0.000781 0.328236
v -0.326236 0.140781 0.328236
v 0.000000 0.433394 -0.035490
v 0.000000 0.498606 -0.035490
v 0.006924 0.433394 -0.034808
v 0.006924 0.498606 -0.034808
v 0.013582 0.433394 -0.032789
v 0.013582 0.498606 -0.032789
v 0.019717 0.433394 -0.029509
v 0.019717 0.498606 -0.029509
v 0.025095 0.433394 -0.025095
v 0.025095 0.498606 -0.025095
v 0.029509 0.433394 -0.019717
v 0.029509 0.498606 -0.019717
v 0.032789 0.433394 -0.013582
v 0.032789 0.498606 -0.013582
v 0.034808 0.433394 -0.006924
v 0.034808 0.498606 -0.006924
v 0.035490 0.433394 0.000000
v 0.035490 0.498606 0.000000
v 0.034808 0.433394 0.006924
v 0.034808 0.498606 0.006924
v 0.032789 0.433394 0.013582
v 0.032789 0.498606 0.013582
v 0.029509 0.433394 0.019717
v 0.029509 0.498606 0.019717
v 0.025095 0.433394 0.025095
v 0.025095 0.498606 0.025095
v 0.019717 0.433394 0.029509
v 0.019717 0.498606 0.029509
v 0.013582 0.433394 0.032789
v 0.013582 0.498606 0.032789
v 0.006924 0.433394 0.034808
v 0.006924 0.498606 0.034808
v 0.000000 0.433394 0.035490
v 0.000000 0.498606 0.035490
v -0.006924 0.433394 0.034808
v -0.006924 0.498606 0.034808
v -0.013582 0.433394 0.032789
v -0.013582 0.498606 0.032789
v -0.019717 0.433394 0.029509
v -0.019717 0.498606 0.029509
v -0.025095 0.433394 0.025095
v -0.025095 0.498606 0.025095
v -0.029509 0.433394 0.019717
v -0.029509 0.498606 0.019717
v -0.032789 0.433394 0.013582
v -0.032789 0.498606 0.013582
v -0.034808 0.433394 0.006924
v -0.034808 0.498606 0.006924
v -0.035490 0.433394 0.000000
v -0.035490 0.498606 0.000000
v -0.034808 0.433394 -0.006924
v -0.034808 0.498606 -0.006924
v -0.032789 0.433394 -0.013582
v -0.032789 0.498606 -0.013582
v -0.029509 0.433394 -0.019717
v -0.029509 0.498606 -0.019717
v -0.025095 0.433394 -0.025095
v -0.025095 0.498606 -0.025095
v -0.019717 0.433394 -0.029509
v -0.019717 0.498606 -0.029509
v -0.013582 0.433394 -0.032789
v -0.013582 0.498606 -0.032789
v -0.006924 0.433394 -0.034808
v -0.006924 0.498606 -0.034808
v -0.198861 -0.000553 -0.453447
v 0.198861 -0.000553 -0.453447
v 0.198861 -0.000553 0.453447
v -0.198861 -0.000553 0.453447
v -0.198861 -0.377447 -0.286553
v 0.198861 -0.377447 -0.286553
v 0.198861 -0.377447 0.286553
v -0.198861 -0.377447 0.286553
v -0.198861 -0.000553 0.286553
v 0.198861 -0.000553 0.286553
v 0.198861 -0.000553 -0.286553
v -0.198861 -0.000553 -0.286553
vn -0.8560 0.5169 -0.0000
vn -0.0000 0.4720 -0.8816
vn 0.8560 0.5169 -0.0000
vn -0.0000 0.4720 0.8816
vn -0.0000 -1.0000 -0.0000
vn -0.0000 1.0000 -0.0000
vn -1.0000 -0.0000 -0.0000
vn 0.1699 0.3990 0.9011
vn 1.0000 -0.0000 -0.0000
vn -0.0000 -0.0000 1.0000
vn -0.1699 0.3990 -0.9011
vn -0.0000 -0.0000 -1.0000
vn 0.0980 -0.0000 -0.9952
vn 0.2903 -0.0000 -0.9569
vn 0.4714 -0.0000 -0.8819
vn 0.6344 -0.0000 -0.7730
vn 0.7730 -0.0000 -0.6344
vn 0.8819 -0.0000 -0.4714
vn 0.9569 -0.0000 -0.2903
vn 0.9952 -0.0000 -0.0980
vn 0.9952 -0.0000 0.0980
vn 0.9569 -0.0000 0.2903
vn 0.8819 -0.0000 0.4714
vn 0.7730 -0.0000 0.6344
vn 0.6344 -0.0000 0.7730
vn 0.4714 -0.0000 0.8819
vn 0.2903 -0.0000 0.9569
vn 0.0980 -0.0000 0.9952
vn -0.0980 -0.0000 0.9952
vn -0.2903 -0.0000 0.9569
vn -0.4714 -0.0000 0.8819
vn -0.6344 -0.0000 0.7730
vn -0.7730 -0.0000 0.6344
vn -0.8819 -0.0000 0.4714
vn -0.9569 -0.0000 0.2903
vn -0.9952 -0.0000 0.0980
vn -0.9952 -0.0000 -0.0980
vn -0.9569 -0.0000 -0.2903
vn -0.8819 -0.0000 -0.4714
vn -0.7730 -0.0000 -0.6344
vn -0.6344 -0.0000 -0.7730
vn -0.4714 -0.0000 -0.8819
vn -0.2903 -0.0000 -0.9569
vn -0.0980 -0.0000 -0.9952
vn -0.0000 -0.4049 -0.9144
vn 0.3260 0.3828 0.8644
vn -0.3260 0.3828 -0.8644
vn -0.0000 -0.4049 0.9144
vn 0.3526 -0.0419 0.9348
vn -0.3526 -0.0419 0.9348
vn 0.3526 -0.0419 -0.9348
vn -0.3526 -0.0419 -0.9348
vn -0.0000 0.0448 0.9990
vn -0.3260 0.3828 0.8644
vn -0.0000 0.0448 -0.9990
vn 0.3260 0.3828 -0.8644
vt 0.625000 0.000000
vt 0.375000 0.250000
vt 0.375000 0.000000
vt 0.625000 0.250000
vt 0.375000 0.500000
vt 0.625000 0.500000
vt 0.375000 0.750000
vt 0.625000 0.750000
vt 0.375000 1.000000
vt 0.125000 0.750000
vt 0.125000 0.500000
vt 0.875000 0.500000
vt 0.375000 0.416667
vt 0.625000 0.416667
vt 0.625000 0.833333
vt 0.625000 0.916667
vt 0.375000 0.916667
vt 0.708333 0.500000
vt 0.708333 0.750000
vt 1.000000 1.000000
vt 0.968750 0.500000
vt 1.000000 0.500000
vt 0.968750 1.000000
vt 0.937500 0.500000
vt 0.937500 1.000000
vt 0.906250 0.500000
vt 0.906250 1.000000
vt 0.875000 1.000000
vt 0.843750 0.500000
vt 0.843750 1.000000
vt 0.812500 0.500000
vt 0.812500 1.000000
vt 0.781250 0.500000
vt 0.781250 1.000000
vt 0.750000 0.500000
vt 0.750000 1.000000
vt 0.718750 0.500000
vt 0.718750 1.000000
vt 0.687500 0.500000
vt 0.687500 1.000000
vt 0.656250 0.500000
vt 0.656250 1.000000
vt 0.625000 1.000000
vt 0.593750 0.500000
vt 0.593750 1.000000
vt 0.562500 0.500000
vt 0.562500 1.000000
vt 0.531250 0.500000
vt 0.531250 1.000000
vt 0.500000 0.500000
vt 0.500000 1.000000
vt 0.468750 0.500000
vt 0.468750 1.000000
vt 0.437500 0.500000
vt 0.437500 1.000000
vt 0.406250 0.500000
vt 0.406250 1.000000
vt 0.343750 0.500000
vt 0.343750 1.000000
vt 0.312500 0.500000
vt 0.312500 1.000000
vt 0.281250 0.500000
vt 0.281250 1.000000
vt 0.250000 0.500000
vt 0.250000 1.000000
vt 0.218750 0.500000
vt 0.218750 1.000000
vt 0.187500 0.500000
vt 0.187500 1.000000
vt 0.156250 0.500000
vt 0.156250 1.000000
vt 0.125000 1.000000
vt 0.093750 0.500000
vt 0.093750 1.000000
vt 0.062500 0.500000
vt 0.158156 0.028269
vt 0.471731 0.158156
vt 0.341844 0.471731
vt 0.062500 1.000000
vt 0.031250 0.500000
vt 0.031250 1.000000
vt 0.000000 0.500000
vt 0.796822 0.014612
vt 0.514612 0.203178
vt 0.703178 0.485388
vt 0.625000 0.333333
vt 0.375000 0.333333
vt 0.000000 0.000000
vt 0.875000 0.750000
vt 0.375000 0.833333
vt 0.791667 0.750000
vt 0.296822 0.485388
vt 0.250000 0.490000
vt 0.203178 0.485388
vt 0.158156 0.471731
vt 0.116663 0.449553
vt 0.080294 0.419706
vt 0.050447 0.383337
vt 0.028269 0.341844
vt 0.014612 0.296822
vt 0.010000 0.250000
vt 0.014612 0.203178
vt 0.028269 0.158156
vt 0.050447 0.116663
vt 0.080294 0.080294
vt 0.116663 0.050447
vt 0.203178 0.014612
vt 0.250000 0.010000
vt 0.296822 0.014612
vt 0.341844 0.028269
vt 0.383337 0.050447
vt 0.419706 0.080294
vt 0.449553 0.116663
vt 0.485388 0.203178
vt 0.490000 0.250000
vt 0.485388 0.296822
vt 0.471731 0.341844
vt 0.449553 0.383337
vt 0.419706 0.419706
vt 0.383337 0.449553
vt 0.000000 1.000000
vt 0.750000 0.490000
vt 0.796822 0.485388
vt 0.841844 0.471731
vt 0.883337 0.449553
vt 0.919706 0.419706
vt 0.949553 0.383337
vt 0.971731 0.341844
vt 0.985388 0.296822
vt 0.990000 0.250000
vt 0.985388 0.203178
vt 0.971731 0.158156
vt 0.949553 0.116663
vt 0.919706 0.080294
vt 0.883337 0.050447
vt 0.841844 0.028269
vt 0.750000 0.010000
vt 0.703178 0.014612
vt 0.658156 0.028269
vt 0.616663 0.050447
vt 0.580294 0.080294
vt 0.550447 0.116663
vt 0.528269 0.158156
vt 0.510000 0.250000
vt 0.514612 0.296822
vt 0.528269 0.341844
vt 0.550447 0.383337
vt 0.580294 0.419706
vt 0.616663 0.449553
vt 0.658156 0.471731
s 0
f 2/1/1 3/2/1 1/3/1
f 4/4/2 7/5/2 3/2/2
f 8/6/3 5/7/3 7/5/3
f 6/8/4 1/9/4 5/7/4
f 7/5/5 1/10/5 3/11/5
f 4/12/6 6/8/6 8/6/6
f 9/3/7 10/1/7 11/4/7
f 106/13/8 102/14/8 11/4/8
f 12/5/9 14/6/9 13/8/9
f 111/15/10 112/16/10 105/17/10
f 102/18/6 11/12/6 111/19/6
f 15/3/9 16/1/9 17/4/9
f 108/13/11 104/14/11 17/4/11
f 18/5/7 20/6/7 19/8/7
f 109/15/12 110/16/12 107/17/12
f 104/18/6 17/12/6 109/19/6
f 22/1/7 23/2/7 21/3/7
f 24/4/12 27/5/12 23/2/12
f 28/6/9 25/7/9 27/5/9
f 26/8/10 21/9/10 25/7/10
f 27/5/5 21/10/5 23/11/5
f 24/12/6 26/8/6 28/6/6
f 30/1/7 31/2/7 29/3/7
f 32/4/12 35/5/12 31/2/12
f 36/6/9 33/7/9 35/5/9
f 34/8/10 29/9/10 33/7/10
f 35/5/5 29/10/5 31/11/5
f 32/12/6 34/8/6 36/6/6
f 38/20/13 39/21/13 37/22/13
f 40/23/14 41/24/14 39/21/14
f 42/25/15 43/26/15 41/24/15
f 44/27/16 45/12/16 43/26/16
f 46/28/17 47/29/17 45/12/17
f 48/30/18 49/31/18 47/29/18
f 50/32/19 51/33/19 49/31/19
f 52/34/20 53/35/20 51/33/20
f 54/36/21 55/37/21 53/35/21
f 56/38/22 57/39/22 55/37/22
f 58/40/23 59/41/23 57/39/23
f 60/42/24 61/6/24 59/41/24
f 62/43/25 63/44/25 61/6/25
f 64/45/26 65/46/26 63/44/26
f 66/47/27 67/48/27 65/46/27
f 68/49/28 69/50/28 67/48/28
f 70/51/29 71/52/29 69/50/29
f 72/53/30 73/54/30 71/52/30
f 74/55/31 75/56/31 73/54/31
f 76/57/32 77/5/32 75/56/32
f 78/9/33 79/58/33 77/5/33
f 80/59/34 81/60/34 79/58/34
f 82/61/35 83/62/35 81/60/35
f 84/63/36 85/64/36 83/62/36
f 86/65/37 87/66/37 85/64/37
f 88/67/38 89/68/38 87/66/38
f 90/69/39 91/70/39 89/68/39
f 92/71/40 93/11/40 91/70/40
f 94/72/41 95/73/41 93/11/41
f 96/74/42 97/75/42 95/73/42
f 74/76/6 58/77/6 42/78/6
f 98/79/43 99/80/43 97/75/43
f 100/81/44 37/82/44 99/80/44
f 67/83/5 83/84/5 99/85/5
f 101/86/45 106/13/45 105/87/45
f 11/88/46 105/88/46 101/88/46
f 17/88/47 107/88/47 103/88/47
f 107/88/48 104/88/48 108/88/48
f 15/3/49 17/4/49 103/86/49
f 103/88/48 107/88/48 15/88/48
f 18/5/48 108/88/48 104/88/48
f 104/88/50 20/88/50 18/88/50
f 12/5/45 106/13/45 102/14/45
f 102/88/51 14/88/51 12/88/51
f 9/3/52 11/4/52 101/86/52
f 101/88/45 105/88/45 9/88/45
f 109/88/5 20/88/5 19/88/5
f 110/88/5 17/88/5 103/88/5
f 103/88/5 109/88/5 110/88/5
f 111/88/6 14/88/6 102/88/6
f 112/88/6 102/88/6 101/88/6
f 112/88/5 11/88/5 101/88/5
f 2/1/1 4/4/1 3/2/1
f 4/4/2 8/6/2 7/5/2
f 8/6/3 6/8/3 5/7/3
f 6/8/4 2/43/4 1/9/4
f 7/5/5 5/7/5 1/10/5
f 4/12/6 2/89/6 6/8/6
f 11/4/53 9/2/53 105/87/53
f 106/13/53 12/5/53 14/6/53
f 11/4/53 105/87/53 106/13/53
f 102/14/6 101/86/6 11/4/6
f 106/13/54 14/6/54 102/14/54
f 106/90/10 12/7/10 13/8/10
f 106/90/10 13/8/10 111/15/10
f 10/43/10 9/9/10 105/17/10
f 105/17/10 106/90/10 111/15/10
f 112/16/10 10/43/10 105/17/10
f 13/8/6 14/6/6 102/18/6
f 11/12/6 10/89/6 112/91/6
f 111/19/6 13/8/6 102/18/6
f 11/12/6 112/91/6 111/19/6
f 17/4/55 15/2/55 107/87/55
f 108/13/55 18/5/55 20/6/55
f 17/4/55 107/87/55 108/13/55
f 104/14/6 103/86/6 17/4/6
f 108/13/56 20/6/56 104/14/56
f 108/90/12 18/7/12 19/8/12
f 108/90/12 19/8/12 109/15/12
f 16/43/12 15/9/12 107/17/12
f 107/17/12 108/90/12 109/15/12
f 110/16/12 16/43/12 107/17/12
f 19/8/6 20/6/6 104/18/6
f 17/12/6 16/89/6 110/91/6
f 109/19/6 19/8/6 104/18/6
f 17/12/6 110/91/6 109/19/6
f 22/1/7 24/4/7 23/2/7
f 24/4/12 28/6/12 27/5/12
f 28/6/9 26/8/9 25/7/9
f 26/8/10 22/43/10 21/9/10
f 27/5/5 25/7/5 21/10/5
f 24/12/6 22/89/6 26/8/6
f 30/1/7 32/4/7 31/2/7
f 32/4/12 36/6/12 35/5/12
f 36/6/9 34/8/9 33/7/9
f 34/8/10 30/43/10 29/9/10
f 35/5/5 33/7/5 29/10/5
f 32/12/6 30/89/6 34/8/6
f 38/20/13 40/23/13 39/21/13
f 40/23/14 42/25/14 41/24/14
f 42/25/15 44/27/15 43/26/15
f 44/27/16 46/28/16 45/12/16
f 46/28/17 48/30/17 47/29/17
f 48/30/18 50/32/18 49/31/18
f 50/32/19 52/34/19 51/33/19
f 52/34/20 54/36/20 53/35/20
f 54/36/21 56/38/21 55/37/21
f 56/38/22 58/40/22 57/39/22
f 58/40/23 60/42/23 59/41/23
f 60/42/24 62/43/24 61/6/24
f 62/43/25 64/45/25 63/44/25
f 64/45/26 66/47/26 65/46/26
f 66/47/27 68/49/27 67/48/27
f 68/49/28 70/51/28 69/50/28
f 70/51/29 72/53/29 71/52/29
f 72/53/30 74/55/30 73/54/30
f 74/55/31 76/57/31 75/56/31
f 76/57/32 78/9/32 77/5/32
f 78/9/33 80/59/33 79/58/33
f 80/59/34 82/61/34 81/60/34
f 82/61/35 84/63/35 83/62/35
f 84/63/36 86/65/36 85/64/36
f 86/65/37 88/67/37 87/66/37
f 88/67/38 90/69/38 89/68/38
f 90/69/39 92/71/39 91/70/39
f 92/71/40 94/72/40 93/11/40
f 94/72/41 96/74/41 95/73/41
f 96/74/42 98/79/42 97/75/42
f 42/78/6 40/92/6 38/93/6
f 38/93/6 100/94/6 98/95/6
f 98/95/6 96/96/6 94/97/6
f 94/97/6 92/98/6 90/99/6
f 90/99/6 88/100/6 86/101/6
f 86/101/6 84/102/6 82/103/6
f 82/103/6 80/104/6 78/105/6
f 78/105/6 76/106/6 74/76/6
f 74/76/6 72/107/6 70/108/6
f 70/108/6 68/109/6 66/110/6
f 66/110/6 64/111/6 62/112/6
f 62/112/6 60/113/6 58/77/6
f 58/77/6 56/114/6 54/115/6
f 54/115/6 52/116/6 50/117/6
f 50/117/6 48/118/6 46/119/6
f 46/119/6 44/120/6 42/78/6
f 42/78/6 38/93/6 98/95/6
f 98/95/6 94/97/6 90/99/6
f 90/99/6 86/101/6 82/103/6
f 82/103/6 78/105/6 74/76/6
f 74/76/6 70/108/6 66/110/6
f 66/110/6 62/112/6 58/77/6
f 58/77/6 54/115/6 50/117/6
f 50/117/6 46/119/6 42/78/6
f 42/78/6 98/95/6 90/99/6
f 90/99/6 82/103/6 74/76/6
f 74/76/6 66/110/6 58/77/6
f 58/77/6 50/117/6 42/78/6
f 42/78/6 90/99/6 74/76/6
f 98/79/43 100/81/43 99/80/43
f 100/81/44 38/121/44 37/82/44
f 99/85/5 37/122/5 39/123/5
f 39/123/5 41/124/5 43/125/5
f 43/125/5 45/126/5 47/127/5
f 47/127/5 49/128/5 51/129/5
f 51/129/5 53/130/5 55/131/5
f 55/131/5 57/132/5 59/133/5
f 59/133/5 61/134/5 63/135/5
f 63/135/5 65/136/5 67/83/5
f 67/83/5 69/137/5 71/138/5
f 71/138/5 73/139/5 75/140/5
f 75/140/5 77/141/5 79/142/5
f 79/142/5 81/143/5 83/84/5
f 83/84/5 85/144/5 87/145/5
f 87/145/5 89/146/5 91/147/5
f 91/147/5 93/148/5 95/149/5
f 95/149/5 97/150/5 99/85/5
f 99/85/5 39/123/5 43/125/5
f 43/125/5 47/127/5 51/129/5
f 51/129/5 55/131/5 59/133/5
f 59/133/5 63/135/5 67/83/5
f 67/83/5 71/138/5 75/140/5
f 75/140/5 79/142/5 83/84/5
f 83/84/5 87/145/5 91/147/5
f 91/147/5 95/149/5 99/85/5
f 99/85/5 43/125/5 51/129/5
f 51/129/5 59/133/5 67/83/5
f 67/83/5 75/140/5 83/84/5
f 83/84/5 91/147/5 99/85/5
f 99/85/5 51/129/5 67/83/5
f 101/86/45 102/14/45 106/13/45
f 107/88/48 103/88/48 104/88/48
f 109/88/5 104/88/5 20/88/5
f 103/88/5 104/88/5 109/88/5
f 111/88/6 13/88/6 14/88/6
f 112/88/6 111/88/6 102/88/6
